<svg width="1200" height="1200" viewBox="0 0 1200 1200" fill="none" xmlns="http://www.w3.org/2000/svg">
<circle cx="600" cy="600" r="600" fill="url(#paint0_linear_9_2)"/>
<path d="M645.807 472.085L539.677 492.877C538.827 493.042 538.057 493.487 537.488 494.139C536.919 494.791 536.583 495.614 536.534 496.478L530.007 606.756C529.971 607.361 530.076 607.966 530.315 608.523C530.554 609.08 530.92 609.574 531.383 609.965C531.846 610.356 532.394 610.634 532.983 610.776C533.572 610.918 534.186 610.921 534.776 610.784L564.321 603.962C564.958 603.815 565.621 603.83 566.25 604.007C566.879 604.183 567.454 604.515 567.921 604.971C568.388 605.428 568.734 605.994 568.925 606.619C569.116 607.244 569.147 607.906 569.015 608.546L560.239 651.538C560.104 652.199 560.143 652.885 560.353 653.527C560.562 654.17 560.935 654.746 561.435 655.201C561.935 655.655 562.544 655.972 563.203 656.12C563.862 656.268 564.548 656.242 565.195 656.045L583.443 650.501C584.09 650.303 584.778 650.277 585.438 650.425C586.099 650.574 586.709 650.892 587.209 651.348C587.709 651.804 588.082 652.382 588.29 653.026C588.499 653.67 588.536 654.357 588.398 655.019L574.439 722.546C573.566 726.77 579.187 729.073 581.533 725.46L583.094 723.037L669.59 550.428C669.914 549.777 670.051 549.049 669.983 548.325C669.916 547.601 669.647 546.911 669.208 546.332C668.768 545.753 668.175 545.308 667.497 545.048C666.818 544.789 666.08 544.724 665.366 544.861L634.948 550.722C634.293 550.848 633.617 550.803 632.985 550.592C632.352 550.382 631.784 550.012 631.335 549.52C630.886 549.027 630.571 548.427 630.42 547.778C630.269 547.128 630.287 546.451 630.473 545.811L650.315 476.985C650.502 476.343 650.521 475.663 650.369 475.012C650.217 474.36 649.9 473.759 649.448 473.265C648.996 472.772 648.425 472.403 647.789 472.194C647.153 471.986 646.475 471.944 645.818 472.074L645.807 472.085Z" fill="url(#paint1_linear_9_2)"/>
<path d="M482.238 371.948C368.913 352.907 279.312 372.836 243.6 429.897C216.953 472.477 224.569 528.932 262.075 589.276C262.821 590.52 263.828 591.615 265.037 592.496C266.246 593.378 267.633 594.029 269.117 594.412C270.601 594.795 272.153 594.901 273.683 594.725C275.212 594.549 276.688 594.094 278.025 593.387C279.362 592.68 280.533 591.735 281.47 590.606C282.408 589.478 283.092 588.188 283.484 586.813C283.876 585.438 283.968 584.005 283.754 582.597C283.54 581.189 283.024 579.834 282.238 578.612C248.453 524.253 241.878 475.53 263.728 440.618C293.394 393.218 373.316 375.442 478.072 393.042C479.582 393.314 481.135 393.306 482.642 393.02C484.148 392.733 485.578 392.174 486.849 391.374C488.119 390.574 489.205 389.549 490.043 388.359C490.881 387.168 491.454 385.837 491.73 384.441C492.006 383.044 491.978 381.612 491.649 380.225C491.32 378.839 490.696 377.527 489.813 376.365C488.93 375.203 487.806 374.214 486.505 373.456C485.205 372.698 483.754 372.185 482.238 371.948ZM649.831 274.842C640.584 291.341 621.919 302.618 600.397 302.618C569.678 302.618 544.778 279.645 544.778 251.309C544.778 222.971 569.684 200 600.397 200C631.116 200 656.016 222.971 656.016 251.309C656.016 252.05 655.997 252.788 655.966 253.52C748.031 297.446 812.006 447.24 812.006 620.295C812.006 691.473 801.219 759.774 781.134 818.982C780.703 820.352 779.98 821.629 779.007 822.738C778.034 823.847 776.831 824.765 775.468 825.44C774.105 826.114 772.611 826.531 771.071 826.665C769.532 826.8 767.978 826.65 766.503 826.224C765.027 825.798 763.658 825.104 762.476 824.184C761.295 823.264 760.324 822.135 759.621 820.865C758.918 819.594 758.498 818.207 758.383 816.784C758.269 815.361 758.464 813.932 758.956 812.579C778.319 755.493 788.766 689.346 788.766 620.295C788.766 457.344 730.05 317.125 649.834 274.842H649.831ZM251.463 757.312C252.846 757.217 254.232 757.169 255.619 757.168C286.338 757.168 311.238 780.144 311.238 808.48C311.238 836.818 286.334 859.786 255.619 859.786C224.9 859.786 200 836.816 200 808.48C200 789.188 211.541 772.386 228.597 763.623C220.222 667.724 329.481 539.177 494.597 451.236C563.178 414.707 634.591 388.778 701.681 375.517C704.695 374.922 707.842 375.455 710.43 377C713.018 378.545 714.834 380.975 715.48 383.755C716.125 386.535 715.547 389.439 713.873 391.826C712.198 394.213 709.564 395.889 706.55 396.484C641.894 409.264 572.747 434.368 506.216 469.804C350.719 552.623 247.903 671.991 251.466 757.312H251.463ZM896.025 833.84C891.252 826.114 888.749 817.372 888.762 808.48C888.762 780.141 913.666 757.171 944.381 757.171C975.1 757.171 1000 780.141 1000 808.48C1000 836.818 975.1 859.786 944.381 859.786C932.741 859.804 921.391 856.437 911.944 850.163C823.219 898.316 653.741 873.757 494.256 788.81C426.363 752.65 366.831 709.079 321.009 662.627C318.992 660.516 317.955 657.758 318.122 654.949C318.29 652.139 319.648 649.502 321.904 647.608C324.16 645.714 327.133 644.714 330.181 644.824C333.229 644.933 336.108 646.145 338.197 648.196C382.366 692.972 440.012 735.163 505.875 770.242C656.391 850.408 814.894 874.267 896.022 833.84H896.025ZM892.381 649.585C890.371 651.695 887.544 652.994 884.507 653.2C881.47 653.407 878.466 652.506 876.142 650.691C873.818 648.876 872.359 646.292 872.078 643.495C871.798 640.697 872.719 637.91 874.644 635.733C943.225 560.992 966.331 488.459 936.728 441.163C915.241 406.828 867.481 387.772 801.222 386.977C799.686 386.972 798.166 386.687 796.75 386.137C795.335 385.588 794.051 384.785 792.974 383.775C791.897 382.765 791.047 381.568 790.474 380.253C789.902 378.939 789.617 377.532 789.637 376.116C789.657 374.699 789.981 373.3 790.591 371.999C791.201 370.699 792.084 369.523 793.189 368.539C794.295 367.555 795.601 366.783 797.031 366.268C798.462 365.753 799.989 365.504 801.525 365.537C875.197 366.422 930.634 388.542 956.856 430.442C992.494 487.384 966.584 568.718 892.381 649.585ZM426.759 838.525C425.795 835.866 425.999 832.964 427.327 830.441C428.655 827.919 431.002 825.977 433.863 825.031C436.725 824.086 439.874 824.213 442.636 825.384C445.398 826.555 447.552 828.678 448.638 831.298C484.5 923.679 541.109 978.56 600.397 978.56C643.038 978.56 684.491 950.383 718.241 898.589C719.829 896.152 722.401 894.397 725.392 893.71C728.383 893.022 731.547 893.459 734.189 894.924C736.831 896.389 738.734 898.762 739.479 901.521C740.224 904.28 739.75 907.199 738.162 909.637C700.606 967.265 652.45 1000 600.397 1000C529.025 1000 465.553 938.468 426.759 838.528V838.525ZM976.756 808.477C976.756 791.981 962.259 778.608 944.381 778.608C926.497 778.608 912 791.981 912 808.474C912 824.973 926.5 838.343 944.378 838.343C962.259 838.343 976.753 824.973 976.753 808.477H976.756ZM255.616 838.343C273.497 838.343 287.991 824.973 287.991 808.477C287.991 791.981 273.497 778.608 255.616 778.608C237.734 778.608 223.241 791.981 223.241 808.474C223.241 824.973 237.734 838.343 255.616 838.343ZM600.397 281.173C618.278 281.173 632.772 267.802 632.772 251.306C632.772 234.811 618.278 221.44 600.397 221.44C582.516 221.44 568.022 234.811 568.022 251.306C568.022 267.802 582.516 281.173 600.397 281.173Z" fill="#88ECFA"/>
<defs>
<linearGradient id="paint0_linear_9_2" x1="223.5" y1="138" x2="1015" y2="1051.5" gradientUnits="userSpaceOnUse">
<stop stop-color="#37AEFF" stop-opacity="0.9"/>
<stop offset="0.354167" stop-color="#8065FF"/>
<stop offset="0.9999" stop-color="#CA1AFF"/>
<stop offset="1" stop-color="#37AEFF" stop-opacity="0"/>
</linearGradient>
<linearGradient id="paint1_linear_9_2" x1="569.167" y1="477.725" x2="601.458" y2="699.236" gradientUnits="userSpaceOnUse">
<stop stop-color="#FFEA83"/>
<stop offset="0.083" stop-color="#FFDD35"/>
<stop offset="1" stop-color="#FFA800"/>
</linearGradient>
</defs>
</svg>
